{"title":"Millers.Crossing.1990.720p.BRRip.x264.aac.mp4-anoXmous","uid":6843347,"size":733712720,"categoryP":"video","categoryS":"hd___movies","magnet":"?xt=urn:btih:e2d8fc9adc9733886b49577aca24fae405db6fe7&amp;dn=Millers.Crossing.1990.720p.BRRip.x264.aac.mp4-anoXmous&amp;tr=udp%3A%2F%2Ftracker.openbittorrent.com%3A80&amp;tr=udp%3A%2F%2Fopen.demonii.com%3A1337&amp;tr=udp%3A%2F%2Ftracker.coppersurfer.tk%3A6969&amp;tr=udp%3A%2F%2Fexodus.desync.com%3A6969","seeders":0,"leechers":1,"uploader":"anoXmous","files":-1,"time":1322238556,"description":"Millers.Crossing.1990.720p.BRRip.x264.aac.mp4-anoXmous\n\nFormat                           : MPEG-4\nFormat profile                   : Base Media\nCodec ID                         : isom\nFile size                        : 700 MiB\nDuration                         : 1h 54mn\nOverall bit rate mode            : Variable\nOverall bit rate                 : 851 Kbps\n\n\nVideo\nID                               : 1\nFormat                           : AVC\nFormat/Info                      : Advanced Video Codec\nFormat profile                   : High@L4.1\nFormat settings, CABAC           : Yes\nFormat settings, ReFrames        : 4 frames\nCodec ID                         : avc1\nCodec ID/Info                    : Advanced Video Coding\nDuration                         : 1h 54mn\nBit rate                         : 660 Kbps\nMaximum bit rate                 : 7 879 Kbps\nWidth                            : 1 280 pixels\nHeight                           : 688 pixels\nDisplay aspect ratio             : 16:9\nOriginal display aspect ratio    : 1.850\nFrame rate mode                  : Constant\nFrame rate                       : 23.976 fps\nColor space                      : YUV\nChroma subsampling               : 4:2:0\nBit depth                        : 8 bits\nScan type                        : Progressive\nBits/(Pixel*Frame)               : 0.031\nStream size                      : 542 MiB (77%)\nWriting library                  : x264 core 119 r2106 07efeb4\n\nAudio\nID                               : 2\nFormat                           : AAC\nFormat/Info                      : Advanced Audio Codec\nFormat profile                   : LC\nCodec ID                         : 40\nDuration                         : 1h 54mn\nBit rate mode                    : Variable\nBit rate                         : 188 Kbps\nMaximum bit rate                 : 289 Kbps\nChannel(s)                       : 6 channels\nChannel positions                : Front: L C R, Side: L R, LFE\nSampling rate                    : 48.0 KHz\nCompression mode                 : Lossy\nStream size                      : 154 MiB (22%)\n &lt;a href=&quot;\nhttp://www.imdb.com/title/tt0100150/&quot; rel=&quot;nofollow&quot; target=&quot;_NEW&quot;&gt;\nhttp://www.imdb.com/title/tt0100150/&lt;/a&gt;\n\n+++++++This 1 should work very fine with PSP and XBOX :)+++++++++\n\t\t\t\t\t\t","torrent":{"xt":"urn:btih:e2d8fc9adc9733886b49577aca24fae405db6fe7","amp;dn":"Millers.Crossing.1990.720p.BRRip.x264.aac.mp4-anoXmous","amp;tr":["udp%3A%2F%2Ftracker.openbittorrent.com%3A80","udp%3A%2F%2Fopen.demonii.com%3A1337","udp%3A%2F%2Ftracker.coppersurfer.tk%3A6969","udp%3A%2F%2Fexodus.desync.com%3A6969"],"infoHash":"e2d8fc9adc9733886b49577aca24fae405db6fe7","infoHashBuffer":{"type":"Buffer","data":[226,216,252,154,220,151,51,136,107,73,87,122,202,36,250,228,5,219,111,231]},"announce":[],"urlList":[]}}